<svg xmlns="http://www.w3.org/2000/svg" viewBox="0 0 512 512">
  <defs>
    <linearGradient id="bg" x1="0%" y1="0%" x2="100%" y2="100%">
      <stop offset="0%" stop-color="#fff4d6"/>
      <stop offset="55%" stop-color="#e7efe7"/>
      <stop offset="100%" stop-color="#d3e7dd"/>
    </linearGradient>
    <linearGradient id="panel" x1="0%" y1="0%" x2="100%" y2="100%">
      <stop offset="0%" stop-color="#fefcf6"/>
      <stop offset="100%" stop-color="#f1eadc"/>
    </linearGradient>
  </defs>
  <rect width="512" height="512" rx="120" fill="url(#bg)"/>
  <circle cx="392" cy="112" r="56" fill="#e48242" opacity="0.22"/>
  <circle cx="120" cy="404" r="64" fill="#2f7a67" opacity="0.18"/>
  <rect x="88" y="88" width="336" height="336" rx="54" fill="url(#panel)" stroke="#1f2c25" stroke-opacity="0.08"/>
  <rect x="122" y="122" width="268" height="94" rx="28" fill="#fffdf8"/>
  <rect x="130" y="276" width="64" height="64" rx="20" fill="#eef3fb"/>
  <rect x="206" y="276" width="64" height="64" rx="20" fill="#eef3fb"/>
  <rect x="282" y="276" width="64" height="64" rx="20" fill="#21352c"/>
  <rect x="358" y="276" width="32" height="140" rx="16" fill="#c96d31"/>
  <rect x="130" y="352" width="64" height="64" rx="20" fill="#eef3fb"/>
  <rect x="206" y="352" width="140" height="64" rx="20" fill="#e7efe7"/>
  <path d="M154 184h204" stroke="#21352c" stroke-width="18" stroke-linecap="round" opacity="0.84"/>
  <path d="M154 154h120" stroke="#5d6b62" stroke-width="14" stroke-linecap="round" opacity="0.46"/>
  <path d="M308 295h12m-6-6v12" stroke="#fffaf4" stroke-width="10" stroke-linecap="round"/>
  <path d="M145 307h34" stroke="#21352c" stroke-width="10" stroke-linecap="round"/>
  <path d="M222 307h32" stroke="#21352c" stroke-width="10" stroke-linecap="round"/>
  <path d="M145 383h34" stroke="#21352c" stroke-width="10" stroke-linecap="round"/>
  <path d="M226 370v26m-13-13h26" stroke="#21352c" stroke-width="10" stroke-linecap="round"/>
</svg>
